# Blender v2.92.0 OBJ File: 'untitled.blend'
# www.blender.org
mtllib lantern pole.mtl
o lantern_pole_Цилиндр
v 0.114496 1.871442 -0.066104
v -0.000001 1.871442 -0.132210
v 0.114496 1.871442 0.066105
v -0.000001 1.871442 0.132211
v -0.114497 1.871442 0.066105
v -0.114497 1.871442 -0.066104
v 0.150791 2.132192 -0.087059
v -0.000002 2.132192 -0.174121
v 0.150791 2.132192 0.087060
v -0.000002 2.132192 0.174121
v -0.150793 2.132192 0.087060
v -0.150793 2.132192 -0.087059
v -0.013962 1.887359 -0.126707
v -0.102753 1.887359 -0.075443
v -0.134617 2.116275 -0.093841
v -0.013963 2.116275 -0.163502
v -0.102753 1.887359 0.075444
v -0.013962 1.887359 0.126708
v -0.013963 2.116275 0.163503
v -0.134617 2.116275 0.093842
v 0.116712 1.887359 0.051263
v 0.116712 1.887359 -0.051262
v 0.148576 2.116275 -0.069659
v 0.148576 2.116275 0.069660
v -0.116713 1.887359 -0.051262
v -0.116713 1.887359 0.051263
v -0.148578 2.116275 0.069660
v -0.148578 2.116275 -0.069659
v 0.013960 1.887359 0.126708
v 0.102751 1.887359 0.075444
v 0.134615 2.116275 0.093842
v 0.013959 2.116275 0.163503
v 0.102751 1.887359 -0.075443
v 0.013960 1.887359 -0.126708
v 0.013959 2.116275 -0.163502
v 0.134615 2.116275 -0.093841
v -0.007743 1.889090 -0.115936
v -0.096533 1.889090 -0.064672
v -0.007743 2.118007 -0.152730
v -0.128398 2.118007 -0.083069
v -0.096533 1.889090 0.064672
v -0.007743 1.889090 0.115937
v -0.128398 2.118006 0.083070
v -0.007743 2.118006 0.152731
v 0.104274 1.889090 0.051263
v 0.104274 1.889090 -0.051262
v 0.136138 2.118006 0.069660
v 0.136138 2.118006 -0.069659
v -0.104275 1.889090 -0.051262
v -0.104275 1.889090 0.051263
v -0.136140 2.118006 -0.069659
v -0.136140 2.118006 0.069660
v 0.007741 1.889090 0.115937
v 0.096532 1.889090 0.064672
v 0.007740 2.118006 0.152731
v 0.128396 2.118006 0.083070
v 0.096532 1.889090 -0.064672
v 0.007741 1.889090 -0.115936
v 0.128396 2.118006 -0.083069
v 0.007740 2.118006 -0.152730
v -0.002858 -0.001220 -0.168650
v 0.002858 -0.001220 -0.168650
v 0.003166 0.708037 -0.165325
v 0.002858 0.702875 -0.168650
v -0.002858 0.702875 -0.168650
v -0.003166 0.708037 -0.165325
v 0.144626 -0.001220 -0.086800
v 0.147484 -0.001220 -0.081849
v 0.141592 0.708037 -0.085404
v 0.144759 0.708037 -0.079920
v 0.147484 0.702875 -0.081850
v 0.144626 0.702875 -0.086801
v 0.147484 -0.001220 0.081849
v 0.144626 -0.001220 0.086800
v 0.144759 0.708037 0.079920
v 0.141592 0.708037 0.085404
v 0.144626 0.702875 0.086801
v 0.147484 0.702875 0.081850
v 0.002858 -0.001220 0.168650
v -0.002858 -0.001220 0.168650
v 0.003166 0.708037 0.165325
v -0.003166 0.708037 0.165325
v -0.002858 0.702875 0.168650
v 0.002858 0.702875 0.168650
v -0.144626 -0.001220 0.086800
v -0.147484 -0.001220 0.081849
v -0.141592 0.708037 0.085404
v -0.144759 0.708037 0.079920
v -0.147484 0.702875 0.081850
v -0.144626 0.702875 0.086801
v -0.147484 -0.001220 -0.081849
v -0.144626 -0.001220 -0.086800
v -0.144759 0.708037 -0.079920
v -0.141592 0.708037 -0.085404
v -0.144626 0.702875 -0.086801
v -0.147484 0.702875 -0.081850
v 0.079486 0.756933 -0.048581
v 0.081816 0.756933 -0.044545
v 0.084037 0.752725 -0.045538
v 0.081456 0.752725 -0.050009
v 0.002330 0.756933 -0.093127
v 0.002582 0.752725 -0.095548
v -0.002582 0.752725 -0.095548
v -0.002330 0.756933 -0.093127
v 0.081816 0.756933 0.044546
v 0.079486 0.756933 0.048582
v 0.081456 0.752725 0.050010
v 0.084037 0.752725 0.045539
v 0.002330 0.756933 0.093128
v -0.002330 0.756933 0.093128
v -0.002582 0.752725 0.095549
v 0.002582 0.752725 0.095549
v -0.079486 0.756933 0.048582
v -0.081816 0.756933 0.044546
v -0.084037 0.752725 0.045539
v -0.081456 0.752725 0.050010
v -0.081816 0.756933 -0.044545
v -0.079486 0.756933 -0.048581
v -0.081456 0.752725 -0.050009
v -0.084037 0.752725 -0.045538
v 0.081816 1.832640 -0.044545
v 0.079486 1.832640 -0.048581
v 0.002330 1.832640 -0.093127
v -0.002330 1.832640 -0.093127
v 0.079486 1.832640 0.048582
v 0.081816 1.832640 0.044546
v -0.002330 1.832640 0.093128
v 0.002330 1.832640 0.093128
v -0.081816 1.832640 0.044546
v -0.079486 1.832640 0.048582
v -0.079486 1.832640 -0.048581
v -0.081816 1.832640 -0.044545
v 0.160153 1.836702 -0.092463
v 0.156092 1.832640 -0.090119
v -0.000001 1.832640 -0.180241
v -0.000001 1.836702 -0.184930
v 0.160153 1.836702 0.092464
v 0.156092 1.832640 0.090119
v -0.000001 1.836702 0.184931
v -0.000001 1.832640 0.180241
v -0.160154 1.836702 0.092464
v -0.156093 1.832640 0.090119
v -0.160154 1.836702 -0.092463
v -0.156093 1.832640 -0.090119
v 0.156092 1.871442 -0.090118
v 0.160153 1.867381 -0.092463
v -0.000001 1.867381 -0.184930
v -0.000001 1.871442 -0.180240
v 0.156092 1.871442 0.090119
v 0.160153 1.867381 0.092464
v -0.000001 1.871442 0.180241
v -0.000001 1.867381 0.184931
v -0.156093 1.871442 0.090119
v -0.160154 1.867381 0.092464
v -0.156093 1.871442 -0.090118
v -0.160154 1.867381 -0.092463
v 0.185535 2.136253 -0.107119
v 0.181474 2.132192 -0.104774
v -0.000002 2.132192 -0.209550
v -0.000002 2.136253 -0.214240
v 0.185535 2.136253 0.107119
v 0.181474 2.132192 0.104774
v -0.000002 2.136253 0.214240
v -0.000002 2.132192 0.209550
v -0.185537 2.136253 0.107119
v -0.181476 2.132192 0.104774
v -0.185537 2.136253 -0.107119
v -0.181476 2.132192 -0.104774
v 0.181474 2.183410 -0.104774
v 0.185535 2.179348 -0.107119
v -0.000002 2.179348 -0.214240
v -0.000002 2.183410 -0.209550
v 0.181474 2.183410 0.104774
v 0.185535 2.179348 0.107119
v -0.000002 2.183410 0.209550
v -0.000002 2.179348 0.214240
v -0.181476 2.183410 0.104774
v -0.185537 2.179348 0.107119
v -0.181476 2.183410 -0.104774
v -0.185537 2.179348 -0.107119
vt 0.163437 0.500000
vt 0.163437 0.998354
vt 0.003230 0.998354
vt 0.003230 0.500000
vt 0.670445 1.000000
vt 0.829555 1.000000
vt 0.828802 1.000000
vt 0.671198 1.000000
vt 0.503778 1.000000
vt 0.662889 1.000000
vt 0.662136 1.000000
vt 0.504531 1.000000
vt 0.337111 1.000000
vt 0.496222 1.000000
vt 0.495469 1.000000
vt 0.337864 1.000000
vt 0.496770 0.500000
vt 0.496770 0.998354
vt 0.336563 0.998354
vt 0.336563 0.500000
vt 0.170445 1.000000
vt 0.329555 1.000000
vt 0.328802 1.000000
vt 0.171198 1.000000
vt 0.837111 1.000000
vt 0.996222 1.000000
vt 0.995469 1.000000
vt 0.837864 1.000000
vt 0.996770 0.500000
vt 0.996770 0.998354
vt 0.836563 0.998354
vt 0.836563 0.500000
vt 0.171413 1.000000
vt 0.328587 1.000000
vt 0.328587 1.000000
vt 0.171413 1.000000
vt 0.830103 0.500000
vt 0.830103 0.998354
vt 0.669897 0.998354
vt 0.669897 0.500000
vt 0.330103 0.500000
vt 0.330103 0.998354
vt 0.169897 0.998354
vt 0.169897 0.500000
vt 0.663437 0.500000
vt 0.663437 0.998354
vt 0.503230 0.998354
vt 0.503230 0.500000
vt 0.838080 1.000000
vt 0.995254 1.000000
vt 0.995254 1.000000
vt 0.838080 1.000000
vt 0.003778 1.000000
vt 0.162889 1.000000
vt 0.162136 1.000000
vt 0.004531 1.000000
vt 0.004746 1.000000
vt 0.161920 1.000000
vt 0.161920 1.000000
vt 0.004746 1.000000
vt 0.338080 1.000000
vt 0.495254 1.000000
vt 0.495254 1.000000
vt 0.338080 1.000000
vt 0.671413 1.000000
vt 0.828587 1.000000
vt 0.828587 1.000000
vt 0.671413 1.000000
vt 0.504746 1.000000
vt 0.661920 1.000000
vt 0.661920 1.000000
vt 0.504746 1.000000
vt 0.457846 0.130000
vt 0.457846 0.370000
vt 0.457846 0.370000
vt 0.457846 0.130000
vt 0.101407 0.184236
vt 0.101407 0.180692
vt 0.101407 0.180692
vt 0.101407 0.184236
vt 0.250000 0.490000
vt 0.042154 0.370000
vt 0.042154 0.370000
vt 0.250000 0.490000
vt 0.250000 0.421581
vt 0.398593 0.335790
vt 0.452575 0.366957
vt 0.250000 0.483913
vt 0.042154 0.130000
vt 0.250000 0.010000
vt 0.250000 0.010000
vt 0.042154 0.130000
vt 0.452575 0.366957
vt 0.452575 0.133043
vt 0.250000 0.016087
vt 0.047425 0.133043
vt 0.047425 0.366957
vt 0.250000 0.483914
vt 0.398593 0.164210
vt 0.452575 0.133043
vt 0.101407 0.335790
vt 0.047425 0.366957
vt 0.250000 0.078419
vt 0.101407 0.164210
vt 0.047425 0.133043
vt 0.250000 0.016087
vt 0.398593 0.335790
vt 0.250000 0.421581
vt 0.250000 0.421581
vt 0.398593 0.335790
vt 0.395340 0.333912
vt 0.250000 0.417825
vt 0.104660 0.333912
vt 0.104660 0.166088
vt 0.250000 0.082175
vt 0.395340 0.166088
vt 0.235726 0.086660
vt 0.115681 0.155969
vt 0.115681 0.155969
vt 0.235726 0.086660
vt 0.264274 0.086660
vt 0.267343 0.088432
vt 0.267343 0.088432
vt 0.264274 0.086660
vt 0.398593 0.315764
vt 0.398593 0.319308
vt 0.398593 0.319308
vt 0.398593 0.315764
vt 0.115681 0.344031
vt 0.235726 0.413340
vt 0.235726 0.413340
vt 0.115681 0.344031
vt 0.381251 0.345803
vt 0.267343 0.411568
vt 0.267343 0.411568
vt 0.381251 0.345803
vt 0.101407 0.335790
vt 0.101407 0.164210
vt 0.101407 0.164210
vt 0.101407 0.335790
vt 0.101407 0.164210
vt 0.250000 0.078419
vt 0.250000 0.078419
vt 0.101407 0.164210
vt 0.398593 0.164210
vt 0.398593 0.164210
vt 0.250000 0.078419
vt 0.250000 0.078419
vt 0.398593 0.335790
vt 0.250000 0.421581
vt 0.250000 0.421581
vt 0.398593 0.335790
vt 0.101407 0.335790
vt 0.101407 0.335790
vt 0.398593 0.164210
vt 0.398593 0.164210
vt 0.118750 0.345803
vt 0.232657 0.411568
vt 0.232657 0.088432
vt 0.118750 0.154197
vt 0.398593 0.184236
vt 0.398593 0.180692
vt 0.101407 0.315764
vt 0.101407 0.319308
vt 0.381251 0.154197
vt 0.384320 0.155969
vt 0.264274 0.413340
vt 0.384320 0.344031
vt 0.384320 0.344031
vt 0.398593 0.180692
vt 0.384320 0.155969
vt 0.381251 0.154197
vt 0.101407 0.319308
vt 0.264274 0.413340
vt 0.118750 0.345803
vt 0.232657 0.411568
vt 0.232657 0.088432
vt 0.118750 0.154197
vt 0.398593 0.184236
vt 0.101407 0.315764
vt 0.996770 1.000000
vt 1.000000 1.000000
vt 1.000000 1.000000
vt 0.995795 1.000000
vt 0.997005 1.000000
vt 1.000000 1.000000
vt 1.000000 1.000000
vt -0.000000 0.998354
vt -0.000000 0.500000
vt -0.000000 1.000000
vt -0.000000 1.000000
vt -0.000000 1.000000
vt -0.000000 1.000000
vt 0.745972 0.487674
vt 0.754028 0.487674
vt 0.953818 0.372326
vt 0.957846 0.365349
vt 0.957846 0.134651
vt 0.953818 0.127674
vt 0.754028 0.012326
vt 0.745972 0.012326
vt 0.546182 0.127674
vt 0.542154 0.134651
vt 0.542154 0.365349
vt 0.546182 0.372326
vn -0.5000 0.0000 -0.8660
vn 0.5927 0.8054 0.0000
vn 0.2964 0.8054 0.5133
vn -0.2964 0.8054 0.5133
vn -0.5000 0.0000 0.8660
vn -0.5927 0.8054 0.0000
vn 0.2964 0.8054 -0.5133
vn 0.5000 0.0000 -0.8660
vn -1.0000 0.0000 0.0000
vn -0.5145 0.8575 -0.0000
vn 1.0000 -0.0000 0.0000
vn 0.5000 0.0000 0.8660
vn 0.2573 0.8575 -0.4455
vn 0.2572 0.8575 -0.4456
vn -0.2964 0.8054 -0.5133
vn -0.2572 0.8575 -0.4456
vn -0.2570 0.8575 -0.4457
vn -0.2573 0.8575 0.4455
vn -0.2572 0.8575 0.4456
vn 0.5145 0.8575 0.0000
vn 0.2572 0.8575 0.4456
vn 0.2573 0.8575 0.4455
vn 0.9697 0.0540 -0.2384
vn 0.9697 0.2259 0.0935
vn 0.9697 -0.0540 0.2384
vn 0.9697 -0.2259 -0.0935
vn -0.0109 0.0786 -0.9968
vn -0.6913 0.0540 -0.7205
vn -0.4038 0.2259 -0.8865
vn -0.2783 -0.0540 -0.9590
vn -0.5658 -0.2259 -0.7930
vn 0.0000 1.0000 0.0000
vn -0.1811 0.9814 -0.0644
vn -0.1664 0.9814 0.0961
vn -0.2783 0.0540 0.9590
vn -0.5658 0.2259 0.7930
vn -0.6913 -0.0540 0.7205
vn -0.4038 -0.2259 0.8865
vn -0.0632 -0.9649 0.2550
vn -0.2524 -0.9649 0.0728
vn -0.1892 -0.9649 -0.1822
vn 0.0632 -0.9649 -0.2550
vn 0.2524 -0.9649 -0.0728
vn 0.1892 -0.9649 0.1822
vn 0.6804 0.0935 0.7268
vn 0.4380 0.2384 0.8668
vn 0.2892 -0.0935 0.9527
vn 0.5316 -0.2384 0.8127
vn -0.9697 0.0935 0.2259
vn -0.9697 0.2384 -0.0540
vn -0.9697 -0.0935 -0.2259
vn -0.9697 -0.2384 0.0540
vn -0.0348 0.9814 -0.1890
vn 0.0000 0.9814 0.1922
vn 0.1811 0.9814 0.0644
vn 0.1664 0.9814 -0.0961
vn 0.2783 0.0540 -0.9590
vn 0.5658 0.2259 -0.7930
vn 0.6913 -0.0540 -0.7205
vn 0.4038 -0.2259 -0.8865
vn -0.2524 0.9649 -0.0728
vn -0.1892 0.9649 0.1822
vn 0.0632 0.9649 0.2550
vn 0.2524 0.9649 0.0728
vn 0.1892 0.9649 -0.1822
vn -0.0632 0.9649 -0.2550
vn 0.0689 -0.9905 -0.1194
vn 0.8688 0.0786 -0.4890
vn 0.0109 0.0786 0.9968
vn 0.0689 -0.9904 0.1194
vn 0.0689 0.9905 -0.1194
vn -0.9697 0.0540 0.2384
vn -0.9697 0.2259 -0.0935
vn -0.9697 -0.0540 -0.2384
vn -0.9697 -0.2259 0.0935
vn 0.0000 -1.0000 0.0000
vn -0.1463 -0.9814 -0.1247
vn 0.0000 -0.9814 -0.1922
vn 0.9697 0.2384 0.0540
vn 0.9697 -0.0935 0.2259
vn 0.6913 0.0540 0.7205
vn 0.5658 -0.2259 0.7930
vn -0.2892 0.0935 0.9527
vn -0.5316 0.2384 0.8127
vn -0.6804 -0.0935 0.7268
vn -0.4381 -0.2384 0.8668
vn 0.1463 -0.9814 0.1247
vn 0.0000 -0.9814 0.1922
vn -0.6804 0.0935 -0.7268
vn -0.4381 0.2384 -0.8668
vn -0.2892 -0.0935 -0.9527
vn -0.5316 -0.2384 -0.8127
vn 0.1664 -0.9814 -0.0961
vn -0.1811 -0.9814 0.0643
vn -0.4952 -0.1379 -0.8577
vn -0.4952 -0.1379 0.8577
vn -0.4952 -0.1379 0.8578
vn 0.9905 -0.1379 0.0000
vn -0.9905 -0.1379 -0.0000
vn 0.4952 -0.1379 0.8578
vn 0.4952 -0.1379 -0.8578
vn -0.8578 0.0786 -0.5079
vn -0.1378 -0.9905 0.0000
vn -0.8578 0.0786 0.5079
vn 0.1378 -0.9905 0.0000
vn 0.8688 0.0786 0.4889
vn -0.0689 -0.9905 -0.1194
vn -0.0689 -0.9905 0.1194
vn -0.0689 0.9904 -0.1194
vn -0.0689 0.9904 0.1194
vn -0.8687 0.0786 0.4890
vn 0.1379 0.9905 0.0000
vn 0.8578 0.0786 0.5079
vn -0.1379 0.9905 0.0000
vn 0.8578 0.0786 -0.5079
vn 0.0109 0.0786 -0.9968
vn 0.0689 0.9905 0.1194
vn -0.8687 0.0786 -0.4890
vn -0.0109 0.0786 0.9968
vn 0.2790 0.8204 -0.4992
vn -0.2790 0.8204 -0.4992
vn 0.2928 0.8204 -0.4912
vn 0.5718 0.8203 -0.0079
vn 0.5718 0.8203 0.0079
vn 0.2928 0.8204 0.4912
vn 0.2790 0.8204 0.4992
vn -0.2790 0.8204 0.4992
vn -0.2928 0.8204 0.4912
vn -0.5718 0.8203 0.0079
vn -0.5718 0.8203 -0.0079
vn -0.2928 0.8204 -0.4912
vn 0.5001 -0.0000 -0.8660
vn 1.0000 -0.0001 0.0000
vn 0.5717 0.8204 -0.0037
vn 0.2891 0.8205 -0.4932
vn 0.2826 0.8205 -0.4969
vn -0.2826 0.8205 -0.4969
vn 0.5001 -0.0000 0.8660
vn 0.2891 0.8205 0.4932
vn 0.5717 0.8204 0.0037
vn -0.2826 0.8205 0.4969
vn 0.2826 0.8205 0.4969
vn -0.5001 -0.0000 0.8660
vn -1.0000 -0.0001 -0.0000
vn -0.5717 0.8204 0.0037
vn -0.2891 0.8205 0.4932
vn -0.5001 -0.0000 -0.8660
vn -0.2891 0.8205 -0.4932
vn -0.5717 0.8204 -0.0037
vn 0.1404 -0.6404 -0.7551
vn 0.3965 -0.4988 -0.7707
vn 0.5372 -0.7145 -0.4483
vn 0.1421 -0.8197 -0.5549
vn 0.7241 -0.6405 -0.2560
vn 0.8656 -0.4989 -0.0419
vn 0.6352 -0.7361 0.2339
vn 0.5388 -0.8325 -0.1289
vn 0.5837 -0.6405 0.4991
vn 0.4692 -0.4989 0.7287
vn 0.1196 -0.7146 0.6893
vn 0.4095 -0.8197 0.4005
vn -0.1404 -0.6405 0.7550
vn -0.3965 -0.4989 0.7706
vn -0.5202 -0.7361 0.4332
vn -0.1577 -0.8326 0.5310
vn -0.7241 -0.6405 0.2560
vn -0.8656 -0.4989 0.0420
vn -0.6568 -0.7145 -0.2410
vn -0.5516 -0.8197 0.1543
vn -0.5837 -0.6404 -0.4991
vn -0.4692 -0.4988 -0.7287
vn -0.1151 -0.7360 -0.6671
vn -0.3811 -0.8325 -0.4022
vn 0.1196 0.7145 -0.6893
vn 0.4095 0.8197 -0.4005
vn 0.5134 0.6939 -0.5049
vn 0.4492 0.5612 -0.6952
vn 0.6353 0.7360 -0.2339
vn 0.5388 0.8325 0.1289
vn 0.7170 0.6709 0.1894
vn 0.8266 0.5612 0.0414
vn 0.5371 0.7145 0.4482
vn 0.1421 0.8197 0.5549
vn 0.1945 0.6709 0.7156
vn 0.3470 0.5681 0.7462
vn -0.1151 0.7361 0.6671
vn -0.3810 0.8325 0.4021
vn -0.5134 0.6939 0.5048
vn -0.4492 0.5613 0.6951
vn -0.6568 0.7145 0.2410
vn -0.5516 0.8197 -0.1544
vn -0.7170 0.6709 -0.1894
vn -0.8197 0.5681 -0.0726
vn -0.5202 0.7361 -0.4332
vn -0.1577 0.8326 -0.5310
vn -0.1805 0.6940 -0.6970
vn -0.3470 0.5681 -0.7462
vn 0.1805 -0.6940 -0.6970
vn 0.3774 -0.5613 -0.7366
vn 0.5201 -0.7361 -0.4332
vn 0.1577 -0.8326 -0.5310
vn 0.7169 -0.6709 -0.1894
vn 0.8197 -0.5682 -0.0726
vn 0.6567 -0.7146 0.2410
vn 0.5387 -0.8326 -0.1289
vn 0.5225 -0.6709 0.5262
vn 0.4492 -0.5612 0.6951
vn 0.1196 -0.7145 0.6893
vn 0.3810 -0.8325 0.4021
vn -0.1805 -0.6939 0.6970
vn -0.3774 -0.5613 0.7366
vn -0.5371 -0.7145 0.4482
vn -0.1421 -0.8197 0.5549
vn -0.6939 -0.6940 0.1922
vn -0.8197 -0.5682 0.0726
vn -0.6352 -0.7361 -0.2339
vn -0.5387 -0.8326 0.1289
vn -0.5225 -0.6709 -0.5262
vn -0.4728 -0.5682 -0.6735
vn -0.1196 -0.7146 -0.6893
vn -0.4095 -0.8197 -0.4005
vn 0.1151 0.7360 -0.6671
vn 0.3810 0.8325 -0.4021
vn 0.5837 0.6405 -0.4991
vn 0.4692 0.4989 -0.7287
vn 0.5516 0.8197 0.1544
vn 0.7241 0.6404 0.2560
vn 0.8656 0.4989 0.0420
vn 0.5202 0.7360 0.4332
vn 0.1404 0.6404 0.7551
vn 0.3965 0.4989 0.7707
vn -0.1196 0.7145 0.6893
vn -0.4095 0.8197 0.4005
vn -0.5837 0.6404 0.4991
vn -0.4692 0.4989 0.7287
vn -0.6353 0.7360 0.2339
vn -0.5388 0.8325 -0.1289
vn -0.7241 0.6404 -0.2560
vn -0.8656 0.4989 -0.0420
vn -0.5371 0.7145 -0.4483
vn -0.1421 0.8197 -0.5549
vn -0.1404 0.6404 -0.7551
vn -0.3965 0.4989 -0.7707
vn 0.2892 0.0935 -0.9527
vn 0.5316 0.2384 -0.8127
vn 0.6804 -0.0935 -0.7268
vn 0.4380 -0.2384 -0.8668
vn -0.4952 -0.1379 -0.8578
usemtl metal_01
s 1
f 92/1/1 95/2/1 65/3/1 61/4/1
f 75/5/2 70/6/2 99/7/2 108/8/2
f 81/9/3 76/10/3 107/11/3 112/12/3
f 87/13/4 82/14/4 111/15/4 116/16/4
f 80/17/5 83/18/5 90/19/5 85/20/5
f 93/21/6 88/22/6 115/23/6 120/24/6
f 69/25/7 63/26/7 102/27/7 100/28/7
f 62/29/8 64/30/8 72/31/8 67/32/8
f 117/33/9 114/34/9 129/35/10 132/36/10
f 68/37/11 71/38/11 78/39/11 73/40/11
f 86/41/9 89/42/9 96/43/9 91/44/9
f 74/45/12 77/46/12 84/47/12 79/48/12
f 97/49/8 101/50/8 123/51/13 122/52/14
f 66/53/15 94/54/15 119/55/15 103/56/15
f 104/57/1 118/58/1 131/59/16 124/60/17
f 113/61/5 110/62/5 127/63/18 130/64/19
f 105/65/11 98/66/11 121/67/20 126/68/20
f 109/69/12 106/70/12 125/71/21 128/72/22
f 137/73/23 133/74/24 146/75/25 150/76/26
f 26/77/27 27/78/27 52/79/27 50/80/27
f 136/81/28 143/82/29 156/83/30 147/84/31
f 2/85/32 1/86/32 145/87/33 148/88/34
f 141/89/35 139/90/36 152/91/37 154/92/38
f 134/93/39 138/94/40 140/95/41 142/96/42 144/97/43 135/98/44
f 139/90/45 137/73/46 150/76/47 152/91/48
f 143/82/49 141/89/50 154/92/51 156/83/52
f 1/86/32 3/99/32 149/100/53 145/87/33
f 6/101/32 2/85/32 148/88/34 155/102/54
f 4/103/32 5/104/32 153/105/55 151/106/56
f 5/104/32 6/101/32 155/102/54 153/105/55
f 157/107/57 160/108/58 171/109/59 170/110/60
f 3/99/32 4/103/32 151/106/56 149/100/53
f 169/111/61 172/112/62 179/113/63 177/114/64 175/115/65 173/116/66
f 19/117/67 20/118/67 43/119/67 44/120/67
f 32/121/68 29/122/68 53/123/68 55/124/68
f 22/125/69 23/126/69 48/127/69 46/128/69
f 15/129/70 16/130/70 39/131/70 40/132/70
f 33/133/71 34/134/71 58/135/71 57/136/71
f 167/137/72 165/138/73 178/139/74 180/140/75
f 11/141/76 10/142/76 164/143/77 166/144/78
f 161/145/23 157/107/79 170/110/80 174/146/26
f 163/147/81 161/145/46 174/146/47 176/148/82
f 165/138/83 163/147/84 176/148/85 178/139/86
f 7/149/76 8/150/76 159/151/87 158/152/88
f 160/108/89 167/137/90 180/140/91 171/109/92
f 12/153/76 11/141/76 166/144/78 168/154/93
f 10/142/76 9/155/76 162/156/94 164/143/77
f 9/155/76 7/149/76 158/152/88 162/156/94
f 8/150/76 12/153/76 168/154/93 159/151/87
f 2/85/95 6/101/95 14/157/95 13/158/95
f 6/101/95 12/153/95 15/129/95 14/157/95
f 12/153/95 8/150/95 16/130/95 15/129/95
f 8/150/95 2/85/95 13/158/95 16/130/95
f 5/104/96 4/103/97 18/159/97 17/160/96
f 4/103/97 10/142/97 19/117/97 18/159/97
f 10/142/97 11/141/96 20/118/96 19/117/97
f 11/141/96 5/104/96 17/160/96 20/118/96
f 3/99/98 1/86/98 22/125/98 21/161/98
f 1/86/98 7/149/98 23/126/98 22/125/98
f 7/149/98 9/155/98 24/162/98 23/126/98
f 9/155/98 3/99/98 21/161/98 24/162/98
f 6/101/99 5/104/99 26/77/99 25/163/99
f 5/104/99 11/141/99 27/78/99 26/77/99
f 11/141/99 12/153/99 28/164/99 27/78/99
f 12/153/99 6/101/99 25/163/99 28/164/99
f 4/103/100 3/99/100 30/165/100 29/122/100
f 3/99/100 9/155/100 31/166/100 30/165/100
f 9/155/100 10/142/100 32/121/100 31/166/100
f 10/142/100 4/103/100 29/122/100 32/121/100
f 1/86/101 2/85/101 34/134/101 33/133/101
f 2/85/101 8/150/101 35/167/101 34/134/101
f 8/150/101 7/149/101 36/168/101 35/167/101
f 7/149/101 1/86/101 33/133/101 36/168/101
f 36/168/102 33/133/102 57/136/102 59/169/102
f 23/126/103 24/162/103 47/170/103 48/127/103
f 30/165/104 31/166/104 56/171/104 54/172/104
f 27/78/105 28/164/105 51/173/105 52/79/105
f 34/134/106 35/167/106 60/174/106 58/135/106
f 31/166/107 32/121/107 55/124/107 56/171/107
f 35/167/108 36/168/108 59/169/108 60/174/108
f 13/158/109 14/157/109 38/175/109 37/176/109
f 17/160/110 18/159/110 42/177/110 41/178/110
f 16/130/111 13/158/111 37/176/111 39/131/111
f 21/161/112 22/125/112 46/128/112 45/179/112
f 20/118/113 17/160/113 41/178/113 43/119/113
f 25/163/114 26/77/114 50/80/114 49/180/114
f 14/157/115 15/129/115 40/132/115 38/175/115
f 24/162/116 21/161/116 45/179/116 47/170/116
f 29/122/117 30/165/117 54/172/117 53/123/117
f 18/159/118 19/117/118 44/120/118 42/177/118
f 28/164/119 25/163/119 49/180/119 51/173/119
f 63/26/120 64/181/8 65/182/1 66/183/121
f 69/25/122 70/6/123 71/38/11 72/31/8
f 75/5/124 76/10/125 77/46/12 78/39/11
f 81/9/126 82/14/127 83/18/5 84/47/12
f 87/13/128 88/22/129 89/42/9 90/19/5
f 93/21/130 94/54/131 95/2/1 96/43/9
f 97/49/132 98/66/133 99/7/134 100/28/135
f 101/184/8 102/185/136 103/186/137 104/187/1
f 105/65/133 106/70/138 107/11/139 108/8/140
f 109/69/12 110/62/5 111/15/141 112/12/142
f 113/61/143 114/34/144 115/23/145 116/16/146
f 117/33/144 118/58/147 119/55/148 120/24/149
f 72/31/8 64/30/8 63/26/120 69/25/122
f 61/4/1 65/3/1 64/188/8 62/189/8
f 71/38/11 68/37/11 67/32/8 72/31/8
f 78/39/11 71/38/11 70/6/123 75/5/124
f 77/46/12 74/45/12 73/40/11 78/39/11
f 84/47/12 77/46/12 76/10/125 81/9/126
f 83/18/5 80/17/5 79/48/12 84/47/12
f 90/19/5 83/18/5 82/14/127 87/13/128
f 89/42/9 86/41/9 85/20/5 90/19/5
f 96/43/9 89/42/9 88/22/129 93/21/130
f 95/2/1 92/1/1 91/44/9 96/43/9
f 65/3/1 95/2/1 94/54/131 66/53/121
f 100/28/135 102/27/136 101/50/8 97/49/132
f 108/8/140 99/7/134 98/66/133 105/65/133
f 112/12/142 107/11/139 106/70/138 109/69/12
f 116/16/146 111/15/141 110/62/5 113/61/143
f 120/24/149 115/23/145 114/34/144 117/33/144
f 103/56/137 119/55/148 118/58/147 104/57/1
f 75/5/124 108/8/140 107/11/139 76/10/125
f 111/15/141 82/14/127 81/9/126 112/12/142
f 93/21/130 120/24/149 119/55/148 94/54/131
f 102/190/136 63/191/120 66/53/121 103/56/137
f 115/23/145 88/22/129 87/13/128 116/16/146
f 69/25/122 100/28/135 99/7/134 70/6/123
f 109/69/12 128/72/12 127/63/5 110/62/5
f 129/35/9 114/34/144 113/61/143 130/64/143
f 97/49/132 122/52/132 121/67/11 98/66/133
f 125/71/138 106/70/138 105/65/133 126/68/11
f 131/59/147 118/58/147 117/33/144 132/36/9
f 104/57/1 124/60/1 123/192/8 101/193/8
f 61/194/76 62/195/76 67/196/76 68/197/76 73/198/76 74/199/76 79/200/76 80/201/76 85/202/76 86/203/76 91/204/76 92/205/76
f 134/93/150 135/98/151 136/81/152 133/74/153
f 138/94/154 134/93/155 133/74/156 137/73/157
f 140/95/158 138/94/159 137/73/160 139/90/161
f 142/96/162 140/95/163 139/90/164 141/89/165
f 144/97/166 142/96/167 141/89/168 143/82/169
f 135/98/170 144/97/171 143/82/172 136/81/173
f 146/75/174 147/84/175 148/88/176 145/87/177
f 150/76/178 146/75/179 145/87/180 149/100/181
f 152/91/182 150/76/183 149/100/184 151/106/185
f 154/92/186 152/91/187 151/106/188 153/105/189
f 156/83/190 154/92/191 153/105/192 155/102/193
f 147/84/194 156/83/195 155/102/196 148/88/197
f 158/152/198 159/151/199 160/108/200 157/107/201
f 162/156/202 158/152/203 157/107/204 161/145/205
f 164/143/206 162/156/207 161/145/208 163/147/209
f 166/144/210 164/143/211 163/147/212 165/138/213
f 168/154/214 166/144/215 165/138/216 167/137/217
f 159/151/218 168/154/219 167/137/220 160/108/221
f 170/110/222 171/109/223 172/112/224 169/111/225
f 174/146/178 170/110/226 169/111/227 173/116/228
f 176/148/229 174/146/183 173/116/230 175/115/231
f 178/139/232 176/148/233 175/115/234 177/114/235
f 180/140/236 178/139/237 177/114/238 179/113/239
f 171/109/240 180/140/241 179/113/242 172/112/243
f 133/74/244 136/81/245 147/84/246 146/75/247
usemtl shine_01
f 37/176/248 38/175/248 40/132/248 39/131/248
f 41/178/97 42/177/97 44/120/97 43/119/97
f 45/179/98 46/128/98 48/127/98 47/170/98
f 49/180/99 50/80/99 52/79/99 51/173/99
f 53/123/100 54/172/100 56/171/100 55/124/100
f 57/136/101 58/135/101 60/174/101 59/169/101
